Coordinates
version=1
nRows=20
nColumns=34
inDegrees=yes

Units are S.I. units (second, meters, Newtons, ...)
Angles are in degrees.

endheader
time	pelvis_tilt	pelvis_list	pelvis_rotation	pelvis_tx	pelvis_ty	pelvis_tz	hip_flexion_r	hip_adduction_r	hip_rotation_r	knee_angle_r	ankle_angle_r	subtalar_angle_r	mtp_angle_r	hip_flexion_l	hip_adduction_l	hip_rotation_l	knee_angle_l	socket_flexion	socket_adduction	socket_rotation	socket_tx	socket_ty	socket_tz	pros_ankle_rx	pros_ankle_ry	pros_ankle_rz	pros_ankle_tx	pros_ankle_ty	pros_ankle_tz	foot_flex	lumbar_extension	lumbar_bending	lumbar_rotation
      0.00000000	     -6.38202573	    -11.29652424	     -8.10687981	     -0.79994322	      1.03685774	      0.36949421	    -14.16120695	     12.13608276	      4.36400382	     -0.03409570	      2.05141791	     15.19965981	     22.50796472	     28.24021715	    -13.75532137	      0.45018578	     -2.90352701	      0.00000000	      0.00000000	      0.00000000	      0.00000000	      0.00000000	      0.00000000	      0.00000000	      0.00000000	      0.00000000	      0.00000000	      0.00000000	      0.00000000	     -0.21682981	    -14.04982632	      9.02804698	     16.18603739
      0.00416667	     -6.40173403	    -11.30979576	     -8.20053340	     -0.79507397	      1.03608980	      0.36952087	    -14.37402706	     12.07090571	      4.37279890	     -0.13407179	      2.05229430	     15.21559229	     22.51582349	     28.31409212	    -13.76242116	      0.45963164	     -3.15326686	      0.00000000	      0.00000000	      0.00000000	      0.00000000	      0.00000000	      0.00000000	      0.00000000	      0.00000000	      0.00000000	      0.00000000	      0.00000000	      0.00000000	     -0.49536502	    -14.01568180	      9.00211642	     16.18594847
      0.00833333	     -6.41438527	    -11.31897166	     -8.26536388	     -0.79009143	      1.03529786	      0.36949730	    -14.59542135	     12.00749623	      4.41830827	     -0.24211824	      2.06242299	     15.25384624	     22.53081585	     28.41592910	    -13.74539564	      0.46784842	     -3.45668498	      0.00000000	      0.00000000	      0.00000000	      0.00000000	      0.00000000	      0.00000000	      0.00000000	      0.00000000	      0.00000000	      0.00000000	      0.00000000	      0.00000000	     -0.85444449	    -13.99030709	      8.95180426	     16.18941166
      0.01250000	     -6.46866349	    -11.29913198	     -8.29027568	     -0.78500408	      1.03441417	      0.36943734	    -14.79121448	     11.92946532	      4.54890312	     -0.32314058	      2.13324509	     15.36487115	     22.58898509	     28.58315292	    -13.68325336	      0.54039063	     -3.77969513	      0.00000000	      0.00000000	      0.00000000	      0.00000000	      0.00000000	      0.00000000	      0.00000000	      0.00000000	      0.00000000	      0.00000000	      0.00000000	      0.00000000	     -1.28711064	    -14.03697525	      8.78802519	     16.20512846
      0.01666667	     -6.47780543	    -11.30416805	     -8.35060019	     -0.77967970	      1.03359576	      0.36942223	    -15.02236862	     11.85784501	      4.59038284	     -0.44681874	      2.15134392	     15.41516977	     22.62110180	     28.68777980	    -13.66125230	      0.52933534	     -4.14485660	      0.00000000	      0.00000000	      0.00000000	      0.00000000	      0.00000000	      0.00000000	      0.00000000	      0.00000000	      0.00000000	      0.00000000	      0.00000000	      0.00000000	     -1.63424264	    -13.99308947	      8.72254538	     16.21237265
      0.02083333	     -6.53592527	    -11.26205122	     -8.40725900	     -0.77431386	      1.03270147	      0.36939903	    -15.20068713	     11.74634482	      4.67660838	     -0.56364116	      2.21639528	     15.53457062	     22.71750812	     28.85735256	    -13.59749441	      0.59788511	     -4.54481048	      0.00000000	      0.00000000	      0.00000000	      0.00000000	      0.00000000	      0.00000000	      0.00000000	      0.00000000	      0.00000000	      0.00000000	      0.00000000	      0.00000000	     -2.01044066	    -14.01913139	      8.53655785	     16.23011678
      0.02500000	     -6.55514920	    -11.24104065	     -8.46531696	     -0.76879612	      1.03189222	      0.36937802	    -15.40833156	     11.64849690	      4.71479328	     -0.71743108	      2.23646735	     15.60364267	     22.78303418	     28.97426090	    -13.55276074	      0.60286100	     -4.96930712	      0.00000000	      0.00000000	      0.00000000	      0.00000000	      0.00000000	      0.00000000	      0.00000000	      0.00000000	      0.00000000	      0.00000000	      0.00000000	      0.00000000	     -2.35745910	    -13.97921512	      8.43799773	     16.23823836
      0.02916667	     -6.56954583	    -11.21480574	     -8.51019676	     -0.76325383	      1.03110356	      0.36929697	    -15.60920539	     11.54398694	      4.76524276	     -0.88527865	      2.24497693	     15.66805317	     22.84235280	     29.09990243	    -13.49417854	      0.61239410	     -5.43500098	      0.00000000	      0.00000000	      0.00000000	      0.00000000	      0.00000000	      0.00000000	      0.00000000	      0.00000000	      0.00000000	      0.00000000	      0.00000000	      0.00000000	     -2.71193849	    -13.94844075	      8.32451216	     16.24108436
      0.03333333	     -6.65406967	    -11.13216364	     -8.55163164	     -0.75771709	      1.03016659	      0.36930448	    -15.67674769	     11.40517521	      4.76776999	     -1.13833059	      2.30759991	     15.81847935	     23.08091601	     29.34375192	    -13.39497888	      0.68035344	     -5.99709987	      0.00000000	      0.00000000	      0.00000000	      0.00000000	      0.00000000	      0.00000000	      0.00000000	      0.00000000	      0.00000000	      0.00000000	      0.00000000	      0.00000000	     -3.00040571	    -13.96429206	      8.02992224	     16.24185855
      0.03750000	     -7.05413019	    -11.06274954	     -8.66132842	     -0.75212983	      1.02870094	      0.36918895	    -14.87368171	     11.30914489	      3.95222609	     -2.33307354	      2.60823269	     17.08865147	     25.68159530	     29.96196107	    -13.34083742	      0.78769499	     -6.66264131	      0.00000000	      0.00000000	      0.00000000	      0.00000000	      0.00000000	      0.00000000	      0.00000000	      0.00000000	      0.00000000	      0.00000000	      0.00000000	      0.00000000	     -3.26817944	    -13.46313346	      7.96939752	     16.22557181
      0.04166667	     -7.03502215	    -10.99384690	     -8.66579631	     -0.74650395	      1.02800622	      0.36910534	    -15.08756093	     11.17141199	      4.02024985	     -2.51549634	      2.55981174	     17.09852804	     25.75723592	     30.07663645	    -13.23259164	      0.81842756	     -7.24605263	      0.00000000	      0.00000000	      0.00000000	      0.00000000	      0.00000000	      0.00000000	      0.00000000	      0.00000000	      0.00000000	      0.00000000	      0.00000000	      0.00000000	     -3.52801429	    -13.50839188	      7.75975316	     16.20449043
      0.04583333	     -7.03470838	    -10.91336351	     -8.66807225	     -0.74086724	      1.02733333	      0.36902456	    -15.24037793	     11.02706451	      4.02136739	     -2.75895240	      2.50258276	     17.07331627	     25.91114037	     30.22373032	    -13.11574182	      0.83436209	     -7.88365746	      0.00000000	      0.00000000	      0.00000000	      0.00000000	      0.00000000	      0.00000000	      0.00000000	      0.00000000	      0.00000000	      0.00000000	      0.00000000	      0.00000000	     -3.73591767	    -13.55342106	      7.50379708	     16.15895792
      0.05000000	     -7.03745328	    -10.82227267	     -8.66510907	     -0.73522073	      1.02667925	      0.36890446	    -15.36980583	     10.87435564	      4.06572884	     -3.02864146	      2.43930944	     17.07125258	     26.04144504	     30.36932701	    -12.98673812	      0.86270890	     -8.53256450	      0.00000000	      0.00000000	      0.00000000	      0.00000000	      0.00000000	      0.00000000	      0.00000000	      0.00000000	      0.00000000	      0.00000000	      0.00000000	      0.00000000	     -3.91455815	    -13.55958426	      7.29995895	     16.11464101
      0.05416667	     -7.02268574	    -10.76542041	     -8.68375718	     -0.72943632	      1.02619792	      0.36880248	    -15.55905986	     10.74774078	      4.11863379	     -3.24770280	      2.38929352	     17.07567007	     26.08219124	     30.41996061	    -12.90574450	      0.85951845	     -9.09575798	      0.00000000	      0.00000000	      0.00000000	      0.00000000	      0.00000000	      0.00000000	      0.00000000	      0.00000000	      0.00000000	      0.00000000	      0.00000000	      0.00000000	     -4.13748874	    -13.49013155	      7.22074171	     16.09633498
      0.05833333	     -7.34425502	    -10.60456511	     -8.65692041	     -0.72402650	      1.02486315	      0.36856812	    -14.77455088	     10.58266366	      3.40228857	     -4.43357909	      2.26029867	     17.69546834	     30.08599138	     31.09382234	    -12.70578171	      0.99791300	    -10.06722470	      0.00000000	      0.00000000	      0.00000000	      0.00000000	      0.00000000	      0.00000000	      0.00000000	      0.00000000	      0.00000000	      0.00000000	      0.00000000	      0.00000000	     -4.11617201	    -13.21169006	      6.88053487	     15.89598305
      0.06250000	     -7.32917853	    -10.49811830	     -8.62204922	     -0.71838385	      1.02436569	      0.36842888	    -14.88343079	     10.43072617	      3.46427302	     -4.74706558	      2.12751371	     17.63247835	     30.11283917	     31.24835529	    -12.55403896	      1.00372662	    -10.83258671	      0.00000000	      0.00000000	      0.00000000	      0.00000000	      0.00000000	      0.00000000	      0.00000000	      0.00000000	      0.00000000	      0.00000000	      0.00000000	      0.00000000	     -4.12948686	    -13.26460647	      6.59853967	     15.83634835
      0.06666667	     -7.31383807	    -10.38864710	     -8.58045058	     -0.71276539	      1.02390473	      0.36827319	    -14.93998727	     10.28071553	      3.47799530	     -5.14273087	      1.98431598	     17.52554787	     30.17087153	     31.39461518	    -12.39877506	      1.02240920	    -11.59042093	      0.00000000	      0.00000000	      0.00000000	      0.00000000	      0.00000000	      0.00000000	      0.00000000	      0.00000000	      0.00000000	      0.00000000	      0.00000000	      0.00000000	     -4.15136450	    -13.28774926	      6.35108980	     15.75926696
      0.07083333	     -7.31132372	    -10.27564500	     -8.52410303	     -0.70715902	      1.02346037	      0.36807572	    -14.91984886	     10.13926479	      3.45610163	     -5.63423166	      1.80138486	     17.38329289	     30.27624629	     31.57401628	    -12.23343837	      1.04718460	    -12.39859061	      0.00000000	      0.00000000	      0.00000000	      0.00000000	      0.00000000	      0.00000000	      0.00000000	      0.00000000	      0.00000000	      0.00000000	      0.00000000	      0.00000000	     -4.10967231	    -13.32959124	      6.06694760	     15.65162426
      0.07500000	     -7.82098636	    -10.21389895	     -8.55982431	     -0.70173506	      1.02214654	      0.36787476	    -13.93790931	     10.12639871	      3.13661931	     -6.88766729	      1.79792390	     17.49922514	     31.97016518	     32.39688749	    -12.17485227	      1.21077942	    -13.36767977	      0.00000000	      0.00000000	      0.00000000	      0.00000000	      0.00000000	      0.00000000	      0.00000000	      0.00000000	      0.00000000	      0.00000000	      0.00000000	      0.00000000	     -4.06442379	    -12.70632059	      6.04923611	     15.47048515
      0.07916667	     -7.73703516	    -10.08407803	     -8.46631241	     -0.69614016	      1.02190546	      0.36762693	    -13.96203581	      9.96288193	      3.07277387	     -7.42500961	      1.52279737	     17.34494032	     32.14172892	     32.46583879	    -11.97509937	      1.23530184	    -14.14698132	      0.00000000	      0.00000000	      0.00000000	      0.00000000	      0.00000000	      0.00000000	      0.00000000	      0.00000000	      0.00000000	      0.00000000	      0.00000000	      0.00000000	     -3.99668829	    -12.85444926	      5.72325192	     15.36192655
